<svg xmlns="http://www.w3.org/2000/svg" viewBox="-312 -1744 2112 2112">
<rect x="-312" y="-1744" width="2112" height="2112" fill="#1A1A2E"/>
<g transform="scale(1,-1)">
<path d="M352 1162H344V168Q344 139 352.0 121.5Q360 104 394.5 92.0Q429 80 504 80V0H56V80Q131 80 165.5 92.0Q200 104 208.0 121.5Q216 139 216 168V1224Q216 1253 208.0 1270.5Q200 1288 165.5 1300.0Q131 1312 56 1312V1392H528L1136 419H1144V1224Q1144 1253 1136.0 1270.5Q1128 1288 1093.5 1300.0Q1059 1312 984 1312V1392H1432V1312Q1357 1312 1322.5 1300.0Q1288 1288 1280.0 1270.5Q1272 1253 1272 1224V-16H1088Z" fill="#E8D8FF"/>
</g>
</svg>